HIERARCHY
ROOT root
{
	OFFSET	0	13.1	24.9
	CHANNELS 6  Xposition Yposition Zposition Xrotation Yrotation Zrotation
	JOINT spine_1
	{
		OFFSET	0	9.99999	0
		CHANNELS 3  Xrotation Yrotation Zrotation
		JOINT spine_2
		{
			OFFSET	0	112	-10
			CHANNELS 3  Xrotation Yrotation Zrotation
			JOINT spine_3
			{
				OFFSET	0	206.5	19.3
				CHANNELS 3  Xrotation Yrotation Zrotation
				JOINT spine_4
				{
					OFFSET	0	110.4	14.6
					CHANNELS 3  Xrotation Yrotation Zrotation
					JOINT neck_1
					{
						OFFSET	0	71.8	-50.3
						CHANNELS 3  Xrotation Yrotation Zrotation
						JOINT neck_2
						{
							OFFSET	0	86.2	-25.8
							CHANNELS 3  Xrotation Yrotation Zrotation
							JOINT head_ee
							{
								OFFSET	0	179.8	-8.7
								CHANNELS 3  Xrotation Yrotation Zrotation
								End Site
								{
									OFFSET	1	0	0
								}
							}
						}
					}
					JOINT left_clavicle
					{
						OFFSET	-43.2	22.4	-70.8
						CHANNELS 3  Xrotation Yrotation Zrotation
						JOINT left_shoulder
						{
							OFFSET	-93.9	-5.79999	48.7
							CHANNELS 3  Xrotation Yrotation Zrotation
							JOINT left_elbow
							{
								OFFSET	-291.4	-30.8	15.2
								CHANNELS 3  Xrotation Yrotation Zrotation
								JOINT left_lowarm_twist
								{
									OFFSET	-110.7	-3.89999	13.6
									CHANNELS 3  Xrotation Yrotation Zrotation
									JOINT left_hand
									{
										OFFSET	-110.7	-3.89999	13.6
										CHANNELS 3  Xrotation Yrotation Zrotation
										JOINT left_ee
										{
											OFFSET	-80.8	-5.10001	12.1
											CHANNELS 3  Xrotation Yrotation Zrotation
											End Site
											{
												OFFSET	1	0	0
											}
										}
									}
								}
							}
						}
					}
					JOINT right_clavicle
					{
						OFFSET	43.2	22.4	-70.8
						CHANNELS 3  Xrotation Yrotation Zrotation
						JOINT right_shoulder
						{
							OFFSET	93.9	-5.79999	48.7
							CHANNELS 3  Xrotation Yrotation Zrotation
							JOINT right_elbow
							{
								OFFSET	291.4	-30.8	15.2
								CHANNELS 3  Xrotation Yrotation Zrotation
								JOINT right_lowarm_twist
								{
									OFFSET	110.7	-3.89999	13.6
									CHANNELS 3  Xrotation Yrotation Zrotation
									JOINT right_hand
									{
										OFFSET	110.7	-3.89999	13.6
										CHANNELS 3  Xrotation Yrotation Zrotation
										JOINT right_ee
										{
											OFFSET	80.8	-5.10001	12.1
											CHANNELS 3  Xrotation Yrotation Zrotation
											End Site
											{
												OFFSET	1	0	0
											}
										}
									}
								}
							}
						}
					}
				}
			}
		}
	}
	JOINT left_hip
	{
		OFFSET	-82.8	-127.5	0.300001
		CHANNELS 3  Xrotation Yrotation Zrotation
		JOINT left_knee
		{
			OFFSET	-28.2	-396.7	2.2
			CHANNELS 3  Xrotation Yrotation Zrotation
			JOINT left_ankle
			{
				OFFSET	-11.7	-411.3	35.4
				CHANNELS 3  Xrotation Yrotation Zrotation
				JOINT left_toes
				{
					OFFSET	0	-60	-88.6
					CHANNELS 3  Xrotation Yrotation Zrotation
					JOINT left_foot_ee
					{
						OFFSET	-22.5	-16.5	-42.2
						CHANNELS 3  Xrotation Yrotation Zrotation
						End Site
						{
							OFFSET	1	0	0
						}
					}
				}
			}
		}
	}
	JOINT right_hip
	{
		OFFSET	82.8	-127.5	0.300001
		CHANNELS 3  Xrotation Yrotation Zrotation
		JOINT right_knee
		{
			OFFSET	28.2	-396.7	2.2
			CHANNELS 3  Xrotation Yrotation Zrotation
			JOINT right_ankle
			{
				OFFSET	11.7	-411.3	35.4
				CHANNELS 3  Xrotation Yrotation Zrotation
				JOINT right_toes
				{
					OFFSET	0	-60	-88.6
					CHANNELS 3  Xrotation Yrotation Zrotation
					JOINT right_foot_ee
					{
						OFFSET	22.5	-16.5	-42.2
						CHANNELS 3  Xrotation Yrotation Zrotation
						End Site
						{
							OFFSET	1	0	0
						}
					}
				}
			}
		}
	}
}
MOTION
Frames: 13
Frame Time: 0.02
2601.29633158 738.626 -1549.73969846 30.1179488903 64.2569721468 -22.4751628421 -2.93443 -0.0888331 -1.81942 -2.93259 0.0271017 -1.82138 -2.93136 0.499705 -1.75173 -2.93557 0.216829 -1.80864 -4.53051 11.2627 2.95485 -4.43363 18.4418 4.889 -0.0 0.0 -0.0 6.69372 20.2106 12.2711 -15.8789 -11.3482 66.1497 0.234602 -6.62906 0.0135868 -73.9266 -7.04771 5.3202 1.56746 14.8222 16.02 -0.0 0.0 -0.0 4.4307 17.9624 -7.38686 3.76382 19.519 -71.9771 1.17031 30.1015 -0.314706 85.2073 4.45137 8.87565 -5.50118 -28.9332 18.6903 0.0 0.0 0.0 10.0016 28.8501 -28.9979 -42.1918 -0.612063 6.30235 23.6546 20.0513 -3.25987 -24.124 0.0 0.0 -0.0 0.0 -0.0 4.32334 27.2964 -15.4831 -13.1515 -0.314358 -1.98938 23.1064 1.73666 3.14323 -25.4472 0.0 0.0 0.0 0.0 0.0 
2589.71957383 739.607 -1543.02304653 35.5732376714 68.2492559415 -28.0945803666 -3.00786 -0.238852 -1.90558 -3.00585 -0.117134 -1.91691 -2.99933 0.387444 -1.88102 -3.00426 0.0855676 -1.91858 -3.33037 11.6109 3.05992 -3.18867 18.8056 4.89003 -0.0 0.0 -0.0 6.59053 20.2795 12.1092 -17.1336 -10.9569 66.1101 0.234363 -6.62236 0.0135592 -73.5782 -7.00319 5.32001 1.87059 13.6198 17.6065 -0.0 0.0 -0.0 4.47397 18.6631 -7.41905 3.44255 19.3899 -71.9527 1.26765 32.1257 -0.365013 85.1365 4.44288 8.87241 -5.09304 -28.7112 16.5223 0.0 0.0 0.0 11.8218 28.7612 -30.1686 -39.8381 -0.456498 5.97561 24.108 20.1019 -3.316 -23.9838 0.0 0.0 -0.0 0.0 -0.0 2.75419 25.6159 -15.0804 -12.3419 -0.308274 -1.86531 23.2678 3.3928 3.17759 -25.1122 0.0 0.0 0.0 0.0 0.0 
2578.80374278 736.639 -1533.20612871 43.3356654946 71.3293161455 -35.9054013607 -3.08428 -0.627653 -1.97167 -3.08226 -0.500945 -2.00759 -3.06127 0.042636 -2.06868 -3.06713 -0.284539 -2.04947 -4.34191 12.0578 3.03845 -4.22375 19.8121 5.07753 -0.0 0.0 -0.0 6.29094 20.8788 11.6164 -18.0957 -10.6542 66.4773 0.287061 -8.09347 0.0203087 -72.9549 -6.92351 5.31898 2.12055 11.4994 18.5673 -0.0 0.0 -0.0 4.3375 15.3399 -7.40645 3.97626 19.3524 -71.99 1.4046 34.8281 -0.440571 85.2249 4.45347 8.87645 -4.34271 -28.5935 12.3893 0.0 0.0 0.0 13.4932 30.1709 -30.8807 -33.1165 -0.0878644 5.01142 23.9131 21.1315 -3.30677 -23.863 0.0 0.0 -0.0 0.0 -0.0 0.899656 23.2319 -14.7029 -12.0608 -0.305751 -1.82225 27.0435 1.82627 3.60121 -23.8785 0.0 0.0 0.0 0.0 0.0 
2569.19395017 734.596 -1522.59424822 45.9692532061 72.2024894738 -38.3876720468 -3.15488 -0.363209 -1.99847 -3.15269 -0.235332 -2.01752 -3.14126 0.30454 -2.00824 -3.14689 -0.016379 -2.03113 -2.6649 11.9914 3.29285 -2.49243 19.2042 5.09722 -0.0 0.0 -0.0 5.94558 22.6118 10.9984 -18.5092 -10.5435 66.7892 0.349412 -9.82013 0.0300171 -72.9674 -6.92511 5.31901 2.38229 10.6049 20.045 -0.0 0.0 -0.0 4.24823 17.1293 -7.06702 2.5509 18.8947 -71.8407 1.70999 40.2638 -0.626886 84.991 4.42544 8.86572 -4.18711 -27.8325 12.0242 0.0 0.0 0.0 11.131 29.6759 -28.9978 -24.4402 0.21657 3.71595 23.0097 16.868 -3.1445 -25.16 0.0 0.0 -0.0 0.0 -0.0 0.144709 22.2167 -15.2138 -10.8628 -0.292633 -1.63891 27.7758 0.810522 3.67437 -23.2986 0.0 0.0 0.0 0.0 0.0 
2562.67790255 733.491 -1518.88853508 47.0636961174 72.0696473597 -39.2660600012 -3.29431 -0.320535 -1.99412 -3.29212 -0.19302 -2.01047 -3.2822 0.348419 -1.98944 -3.28773 0.0299178 -2.01949 -2.37774 12.4485 3.72064 -2.18294 19.6486 5.56611 -0.0 0.0 -0.0 5.7431 22.5164 10.7125 -18.7905 -10.2399 67.377 0.332579 -9.35564 0.0272135 -72.5362 -6.86999 5.31781 2.60056 10.3297 21.457 -0.0 0.0 -0.0 4.20825 17.381 -6.95979 0.996097 18.4957 -71.3393 1.86672 42.7558 -0.730785 84.752 4.39685 8.85463 -4.01641 -27.7896 11.0979 0.0 0.0 0.0 12.7275 30.136 -29.733 -23.8311 0.230517 3.62352 23.1652 16.5488 -3.16039 -25.3926 0.0 0.0 -0.0 0.0 -0.0 0.116291 20.8189 -15.3896 -9.76588 -0.277261 -1.4713 29.2598 2.05205 3.84819 -23.2591 0.0 0.0 0.0 0.0 0.0 
2557.20216037 734.767 -1521.1562488 45.1197656987 72.7530667488 -36.6933821761 -3.00642 -0.371899 -2.16295 -3.00385 -0.233544 -2.18222 -2.99141 0.344016 -2.16756 -2.99797 -0.00254126 -2.19468 -2.38377 12.5131 3.59075 -2.18649 19.8697 5.43961 -0.0 0.0 -0.0 5.52211 23.7255 10.3325 -19.2569 -10.0538 67.4532 0.364749 -10.2422 0.0326886 -72.6475 -6.88422 5.31816 2.61443 10.0536 21.4606 -0.0 0.0 -0.0 4.30903 15.798 -7.30845 0.0876023 17.6573 -71.1881 1.96284 44.1915 -0.796923 84.4496 4.36074 8.84044 -3.77472 -27.2756 10.0713 0.0 0.0 0.0 12.456 30.9009 -29.2456 -19.3996 0.302299 2.94747 21.6389 14.0276 -2.95406 -25.9591 0.0 0.0 -0.0 0.0 -0.0 -0.00122445 18.5301 -15.7151 -9.28218 -0.269463 -1.39749 29.1276 0.164184 3.81771 -23.3668 0.0 0.0 0.0 0.0 0.0 
2540.3128469 739.201 -1511.35105174 45.6745069057 73.5719795024 -37.1587458529 -3.15836 -0.168315 -2.16316 -3.15576 -0.030359 -2.16949 -3.15138 0.542838 -2.10073 -3.15748 0.204336 -2.16006 -1.69294 12.369 2.22402 -1.46294 20.5633 3.89056 -0.0 0.0 -0.0 5.28009 24.3798 9.963 -19.2884 -9.89743 67.8289 0.382727 -10.7356 0.0359615 -73.5191 -6.99563 5.31995 2.48246 12.0789 21.2195 -0.0 0.0 -0.0 4.29805 13.3957 -7.47607 -1.37238 16.4801 -70.4758 2.05375 45.4878 -0.861028 83.6647 4.26736 8.80271 -3.7217 -27.2806 9.77211 0.0 0.0 0.0 11.9631 31.8725 -27.0685 -18.2659 0.312246 2.77381 20.4683 15.7413 -2.82064 -25.5101 0.0 0.0 -0.0 0.0 -0.0 -0.585346 17.7736 -15.3749 -10.0854 -0.282069 -1.52008 29.7279 -3.48314 3.86311 -22.407 0.0 0.0 0.0 0.0 0.0 
2527.71133648 739.485 -1505.66276653 44.0832488326 73.6741918347 -36.1486628771 -2.81426 -0.244595 -2.07142 -2.81188 -0.112319 -2.08278 -2.80488 0.428503 -2.04133 -2.81068 0.100808 -2.08337 -2.66258 11.8219 2.16284 -2.48692 19.7787 3.89623 -0.0 0.0 -0.0 5.08509 24.6787 9.68174 -19.1409 -9.78893 68.4319 0.362525 -10.1811 0.0322943 -73.1554 -6.94915 5.31941 2.53924 12.7504 21.825 -0.0 0.0 -0.0 4.62728 12.9272 -8.20675 -2.68939 13.9588 -70.1588 2.0882 45.9641 -0.885695 81.7899 4.04645 8.70743 -3.56574 -27.3727 8.84774 0.0 0.0 0.0 9.06555 34.2329 -24.0172 -12.9945 0.313316 1.96531 20.5797 14.6234 -2.82674 -26.4623 0.0 0.0 -0.0 0.0 -0.0 -3.1043 12.8565 -12.6669 -10.4647 -0.287425 -1.57804 31.2986 -2.39325 4.03321 -21.7629 0.0 0.0 0.0 0.0 0.0 
2527.75330105 739.485 -1506.0202503 43.9057792824 73.6202580632 -35.9637113989 -2.81426 -0.244595 -2.07142 -2.81188 -0.112319 -2.08278 -2.80488 0.428503 -2.04133 -2.81068 0.100808 -2.08337 -2.66258 11.8219 2.16284 -2.48692 19.7787 3.89623 -0.0 0.0 -0.0 5.08509 24.6787 9.68174 -19.1409 -9.78893 68.4319 0.362525 -10.1811 0.0322943 -73.1554 -6.94915 5.31941 2.53924 12.7504 21.825 -0.0 0.0 -0.0 4.62728 12.9272 -8.20675 -2.68939 13.9588 -70.1588 2.0882 45.9641 -0.885695 81.7899 4.04645 8.70743 -3.56574 -27.3727 8.84774 0.0 0.0 0.0 9.06555 34.2329 -24.0172 -12.9945 0.313316 1.96531 20.5797 14.6234 -2.82674 -26.4623 0.0 0.0 -0.0 0.0 -0.0 -3.1043 12.8565 -12.6669 -10.4647 -0.287425 -1.57804 31.2986 -2.39325 4.03321 -21.7629 0.0 0.0 0.0 0.0 0.0 
2517.83798246 742.992 -1502.74887935 43.5908938945 72.2691600846 -36.1998644747 -2.77363 0.0694063 -2.00996 -2.7714 0.197138 -2.00147 -2.77616 0.705736 -1.88331 -2.78089 0.399507 -1.97109 -3.5 12.493 3.3136 -3.34094 20.255 5.30452 -0.0 0.0 -0.0 4.8628 24.7888 9.37423 -19.0929 -9.87112 68.8095 0.397013 -11.1265 0.0386706 -74.246 -7.08853 5.32013 2.35449 15.4086 21.4006 -0.0 0.0 -0.0 4.96045 13.8503 -8.8453 -3.45242 12.4268 -69.6307 1.93358 43.7617 -0.776605 81.1489 3.97165 8.6732 -3.63096 -27.9021 8.88935 0.0 0.0 0.0 8.03329 34.9623 -23.112 -15.1294 0.321846 2.29274 19.4278 14.8092 -2.68324 -26.8126 0.0 0.0 -0.0 0.0 -0.0 -4.93676 11.0556 -10.8541 -8.76301 -0.260401 -1.31834 30.6109 -0.861203 3.96931 -22.2996 0.0 0.0 0.0 0.0 0.0 
2509.07416409 742.002 -1496.20187534 45.0047919761 72.1636728098 -37.7271553059 -2.81077 -0.0344881 -1.97159 -2.80861 0.0910143 -1.96979 -2.80947 0.596065 -1.87968 -2.81428 0.291785 -1.95019 -3.46721 12.853 2.58209 -3.29385 21.4729 4.59769 -0.0 0.0 -0.0 4.6728 24.8558 9.11386 -18.5514 -9.88339 69.3146 0.40434 -11.3266 0.0400969 -74.2216 -7.08541 5.32015 2.7277 16.3927 24.2188 -0.0 0.0 -0.0 4.97899 12.302 -8.99328 -3.63874 10.9286 -69.1955 1.93427 43.7719 -0.777084 80.752 3.92552 8.65159 -3.42465 -27.2469 8.13907 0.0 0.0 0.0 8.02127 34.9669 -22.5679 -17.3041 0.31799 2.62636 18.2318 12.0093 -2.51772 -25.4402 0.0 0.0 -0.0 0.0 -0.0 -7.02547 10.2984 -9.4685 -6.16884 -0.20439 -0.924217 31.617 0.887455 4.08742 -23.9228 0.0 0.0 0.0 0.0 0.0 
2508.85189128 742.002 -1493.09335233 46.3789436905 72.589795083 -39.1689578293 -2.81077 -0.0344881 -1.97159 -2.80861 0.0910143 -1.96979 -2.80947 0.596065 -1.87968 -2.81428 0.291785 -1.95019 -3.46721 12.853 2.58209 -3.29385 21.4729 4.59769 -0.0 0.0 -0.0 4.6728 24.8558 9.11386 -18.5514 -9.88339 69.3146 0.40434 -11.3266 0.0400969 -74.2216 -7.08541 5.32015 2.7277 16.3927 24.2188 -0.0 0.0 -0.0 4.97899 12.302 -8.99328 -3.63874 10.9286 -69.1955 1.93427 43.7719 -0.777084 80.752 3.92552 8.65159 -3.42465 -27.2469 8.13907 0.0 0.0 0.0 8.02127 34.9669 -22.5679 -17.3041 0.31799 2.62636 18.2318 12.0093 -2.51772 -25.4402 0.0 0.0 -0.0 0.0 -0.0 -7.02547 10.2984 -9.4685 -6.16884 -0.20439 -0.924217 31.617 0.887455 4.08742 -23.9228 0.0 0.0 0.0 0.0 0.0 
2508.64265818 742.002 -1489.61673984 47.9967175696 73.0531374045 -40.862247414 -2.81077 -0.0344881 -1.97159 -2.80861 0.0910143 -1.96979 -2.80947 0.596065 -1.87968 -2.81428 0.291785 -1.95019 -3.46721 12.853 2.58209 -3.29385 21.4729 4.59769 -0.0 0.0 -0.0 4.6728 24.8558 9.11386 -18.5514 -9.88339 69.3146 0.40434 -11.3266 0.0400969 -74.2216 -7.08541 5.32015 2.7277 16.3927 24.2188 -0.0 0.0 -0.0 4.97899 12.302 -8.99328 -3.63874 10.9286 -69.1955 1.93427 43.7719 -0.777084 80.752 3.92552 8.65159 -3.42465 -27.2469 8.13907 0.0 0.0 0.0 8.02127 34.9669 -22.5679 -17.3041 0.31799 2.62636 18.2318 12.0093 -2.51772 -25.4402 0.0 0.0 -0.0 0.0 -0.0 -7.02547 10.2984 -9.4685 -6.16884 -0.20439 -0.924217 31.617 0.887455 4.08742 -23.9228 0.0 0.0 0.0 0.0 0.0 
